<svg width="504" height="504" viewBox="0 0 504 504" fill="none" xmlns="http://www.w3.org/2000/svg">
<path d="M458.5 258.3C449.3 316.8 431.4 333.9 399.7 373.2C368 406.5 322.4 462.1 257.8 459C199.3 449.8 182.2 431.9 142.9 400.2C109.6 368.5 54 322.9 57.1 258.3C66.3 199.8 84.2 182.7 115.9 143.4C147.6 110.1 193.2 54.5 257.8 57.6C316.3 66.8 333.4 84.7 372.7 116.4C406 148.1 461.6 193.7 458.5 258.3Z" fill="#3765AF"/>
<path d="M179.3 235.2C187.2 235.2 192.1 236.5 194.7 239.5C197.3 242.1 197.6 247.4 196.3 253.9C195 261.1 192.4 266.3 188.1 269.3C184.2 272.2 178 273.9 169.8 273.9H157.4L164.9 234.6C164.9 235.2 179.3 235.2 179.3 235.2ZM129.6 313.7H149.9L154.5 288.8H172.2C180.1 288.8 185.9 288.1 191.2 286.5C196.1 284.9 200.7 282.2 204.6 278.3C207.9 275.4 210.8 271.4 213.1 267.8C215.1 264.2 216.7 259.6 217.4 255.4C219.4 244.3 218.1 235.8 212.8 229.6C207.6 223.4 199.1 220.4 187.3 220.4H148L129.6 313.7Z" fill="white"/>
<path d="M237.9 195.6H258.2L253.6 220.5H271.6C282.7 220.5 290.9 222.5 294.8 226.7C299.1 230.6 300.7 237.2 298.4 246L289.9 289.5H269.3L277.5 248.3C278.5 243.7 278.2 240.4 276.5 238.8C274.9 237.2 271.6 236.2 266.4 236.2H250.4L239.9 289.5H219.6L237.9 195.6Z" fill="white"/>
<path d="M343.2 235.2C351.1 235.2 356 236.5 358.6 239.5C361.2 242.1 361.5 247.4 360.2 253.9C358.9 261.1 356.3 266.3 352 269.3C348.1 272.2 341.9 273.9 333.7 273.9H321.3L328.8 234.6C329.2 235.2 343.2 235.2 343.2 235.2ZM293.8 313.7H314.1L318.7 288.8H336.4C344.3 288.8 350.1 288.1 355.4 286.5C360.3 284.9 364.9 282.2 368.8 278.3C372.1 275.4 375 271.4 377.3 267.8C379.3 264.2 380.9 259.6 381.6 255.4C383.6 244.3 382.3 235.8 377 229.6C371.8 223.4 363.3 220.4 351.5 220.4H312.2L293.8 313.7Z" fill="white"/>
</svg>
