<svg width="512" height="512" viewBox="0 0 512 512" fill="none" xmlns="http://www.w3.org/2000/svg">
<path d="M216 120C224.837 120 232 112.837 232 104C232 95.1634 224.837 88 216 88C207.163 88 200 95.1634 200 104C200 112.837 207.163 120 216 120Z" fill="url(#paint0_linear_1_36)"/>
<path d="M296 424C304.837 424 312 416.837 312 408C312 399.163 304.837 392 296 392C287.163 392 280 399.163 280 408C280 416.837 287.163 424 296 424Z" fill="url(#paint1_linear_1_36)"/>
<path d="M408 168H352V104C352 73.128 326.88 48 296 48H216C185.12 48 160 73.128 160 104V168H104C73.12 168 48 193.128 48 224V288C48 318.872 73.12 344 104 344H160V408C160 438.872 185.12 464 216 464H296C326.88 464 352 438.872 352 408V344H408C438.88 344 464 318.872 464 288V224C464 193.128 438.88 168 408 168ZM104 328C81.944 328 64 310.056 64 288V248H120V232H64V224C64 221.264 64.28 218.584 64.808 216H184V200H72.208C79.52 190.344 90.992 184 104 184H232V168H176V104C176 81.944 193.944 64 216 64H296C318.056 64 336 81.944 336 104V224C336 237.232 325.232 248 312 248H268.088H243.92H200C177.944 248 160 265.944 160 288V328H104ZM408 328H280V344H336V408C336 430.056 318.056 448 296 448H216C193.944 448 176 430.056 176 408V288C176 274.768 186.768 264 200 264H243.912H268.08H312C334.056 264 352 246.056 352 224V184H408C430.056 184 448 201.944 448 224V264H392V280H448V288C448 290.736 447.72 293.416 447.192 296H328V312H439.792C432.488 321.656 421.016 328 408 328Z" fill="url(#paint2_linear_1_36)"/>
<defs>
<linearGradient id="paint0_linear_1_36" x1="216" y1="88.344" x2="216" y2="117.112" gradientUnits="userSpaceOnUse">
<stop stop-color="#6DC7FF"/>
<stop offset="1" stop-color="#E6ABFF"/>
</linearGradient>
<linearGradient id="paint1_linear_1_36" x1="296" y1="393.024" x2="296" y2="422.64" gradientUnits="userSpaceOnUse">
<stop stop-color="#6DC7FF"/>
<stop offset="1" stop-color="#E6ABFF"/>
</linearGradient>
<linearGradient id="paint2_linear_1_36" x1="256" y1="53.28" x2="256" y2="454.984" gradientUnits="userSpaceOnUse">
<stop stop-color="#1A6DFF"/>
<stop offset="1" stop-color="#C822FF"/>
</linearGradient>
</defs>
</svg>
