<svg width="512" height="512" viewBox="0 0 512 512" fill="none" xmlns="http://www.w3.org/2000/svg">
<path d="M256 227.2C276.545 227.2 293.2 210.545 293.2 190C293.2 169.455 276.545 152.8 256 152.8C235.455 152.8 218.8 169.455 218.8 190C218.8 210.545 235.455 227.2 256 227.2Z" fill="#61DAFB"/>
<path d="M256 326.8C285.2 355.2 314 372 337.2 372C344.8 372 352 370.4 358 366.8C378.8 354.8 386.4 324.8 379.2 282C378 274.4 376.4 266.8 374.4 258.8C382.4 256.4 389.6 254 396.8 251.6C437.2 236 459.6 214.4 459.6 190.8C459.6 166.8 437.2 145.2 396.8 130C389.6 127.2 382.4 124.8 374.4 122.8C376.4 114.8 378 107.2 379.2 99.6C386 56 378.4 25.6 357.6 13.6C351.6 10 344.4 8.40002 336.8 8.40002C314 8.40002 284.8 25.2 255.6 53.6C226.8 25.2 198 8.40002 174.8 8.40002C167.2 8.40002 160 10 154 13.6C133.2 25.6 125.6 55.6 132.8 98.4C134 106 135.6 113.6 137.6 121.6C129.6 124 122.4 126.4 115.2 128.8C74.8 144.4 52.4 166 52.4 189.6C52.4 213.6 74.8 235.2 115.2 250.4C122.4 253.2 129.6 255.6 137.6 257.6C135.6 265.6 134 273.2 132.8 280.8C126 323.6 133.6 354 154 365.6C160 369.2 167.2 370.8 174.8 370.8C198 371.6 226.8 354.8 256 326.8V326.8ZM233.6 272.8C240.8 273.2 248.4 273.2 256 273.2C263.6 273.2 271.2 273.2 278.4 272.8C271.2 282.4 263.6 291.2 256 299.6C248.4 291.2 240.8 282.4 233.6 272.8V272.8ZM184 231.6C188 238.4 191.6 244.8 196 251.2C183.6 249.6 172 247.6 160.8 245.2C164.4 234.4 168.4 223.2 173.2 212C176.4 218.4 180 225.2 184 231.6V231.6ZM160.8 135.2C172 132.8 183.6 130.8 196 129.2C192 135.6 188 142 184 148.8C180 155.6 176.4 162 173.2 168.8C168 157.2 164 146 160.8 135.2V135.2ZM182.8 190C188 179.2 193.6 168.4 200 157.6C206 147.2 212.8 136.8 219.6 126.4C231.6 125.6 243.6 125.2 256 125.2C268.8 125.2 280.8 125.6 292.4 126.4C299.6 136.8 306 147.2 312 157.6C318.4 168.4 324 179.2 329.2 190C324 200.8 318.4 211.6 312 222.4C306 232.8 299.2 243.2 292.4 253.6C280.4 254.4 268.4 254.8 256 254.8C243.2 254.8 231.2 254.4 219.6 253.6C212.4 243.2 206 232.8 200 222.4C193.6 211.6 188 200.8 182.8 190V190ZM339.2 168.4L328.4 148.4C324.4 141.6 320.8 135.2 316.4 128.8C328.8 130.4 340.4 132.4 351.6 134.8C348 146 344 157.2 339.2 168.4ZM339.2 211.6C344 222.8 348 234 351.6 244.8C340.4 247.2 328.8 249.2 316.4 250.8C320.4 244.4 324.4 238 328.4 231.2C332 225.2 335.6 218.4 339.2 211.6ZM348.4 350.4C345.2 352.4 341.2 353.2 336.8 353.2C317.2 353.2 292.8 337.2 268.8 313.2C280.4 300.8 291.6 286.8 302.8 271.2C321.6 269.6 339.6 266.8 356.4 262.8C358.4 270 359.6 277.2 360.8 284.4C366.4 318.4 362 342.8 348.4 350.4V350.4ZM369.2 139.6C414 152.4 440.8 172 440.8 190C440.8 205.6 422.4 221.2 390 233.6C383.6 236 376.4 238.4 369.2 240.4C364 224 357.6 207.2 349.6 190C357.6 172.8 364.4 156 369.2 139.6ZM337.2 26.8C341.6 26.8 345.2 27.6 348.8 29.6C362 37.2 366.8 61.2 361.2 95.6C360 102.4 358.4 109.6 356.8 117.2C340 113.6 322 110.8 303.2 108.8C292.4 93.2 280.8 79.2 269.2 66.8C293.2 43.2 317.6 26.8 337.2 26.8V26.8ZM278.4 107.2C271.2 106.8 263.6 106.8 256 106.8C248.4 106.8 240.8 106.8 233.6 107.2C240.8 97.6 248.4 88.8 256 80.4C263.6 88.8 271.2 98 278.4 107.2ZM163.6 29.6C166.8 27.6 170.8 26.8 175.2 26.8C194.8 26.8 219.2 42.8 243.2 66.8C231.6 79.2 220.4 93.2 209.2 108.8C190.4 110.4 172.4 113.2 155.6 117.2C153.6 110 152.4 102.8 151.2 95.6C145.6 61.6 150 37.6 163.6 29.6V29.6ZM142.8 240.4C98 227.6 71.2 208 71.2 190C71.2 174.4 89.6 158.8 122 146.4C128.4 144 135.6 141.6 142.8 139.6C148 156 154.4 172.8 162.4 190C154.4 207.2 147.6 224.4 142.8 240.4ZM151.2 284.4C152.4 277.6 154 270.4 155.6 262.8C172.4 266.4 190.4 269.2 209.2 271.2C220 286.8 231.6 300.8 243.2 313.2C219.2 336.8 194.8 353.2 175.2 353.2C170.8 353.2 167.2 352.4 163.6 350.4C150 342.8 145.6 318.4 151.2 284.4V284.4ZM134.4 449.2C143.2 438.4 143.6 426.4 138.8 414.4C134 402.4 124 396.8 111.6 396.4C96.8 396 81.6 396.4 66.8 396.4H64V500H76V460.8H94.8C97.2 460.8 99.2 461.6 100.4 463.6L124.4 500.8C124.8 501.6 126 502.8 126.8 502.8H142.4C132.8 488 123.6 474 114 459.6C122.4 458.4 129.6 455.6 134.4 449.2V449.2ZM76 448.4V408.8H80.4C89.6 408.8 99.2 408.4 108.4 409.2C119.2 409.6 126.8 418 126.8 428.8C126.8 439.6 118 448 107.2 448.4C97.6 448.8 88 448.4 76 448.4V448.4ZM230.8 453.6C224.4 425.6 198.8 418.4 179.2 427.2C164 434 157.2 447.2 156.8 463.6C156.4 476 160 487.2 169.6 495.6C180.4 505.2 193.6 506.4 207.2 504C214.8 502.4 221.6 498.8 226.8 493.2C224.8 490.4 222.8 487.6 220.8 485.2C209.6 494.8 197.2 498 183.6 491.6C174.8 487.2 170.4 476.4 169.6 468.4H231.6V463.2C232 459.6 231.6 456.4 230.8 453.6V453.6ZM170.4 460C169.2 448 181.2 435.2 194.4 435.2C209.6 434.8 219.2 444 219.6 460H170.4V460ZM293.2 425.2C287.2 424 280.8 423.6 274.8 424C265.2 424.8 256.8 429.2 250 436.4C252 439.2 253.6 442 256 445.2C256.8 444.4 257.6 443.6 258.4 443.2C264.8 437.2 272.4 434 281.6 434.8C288.8 435.2 295.6 437.6 297.6 444.8C299.2 450.4 298.8 456.4 299.2 462.4C298 462.4 297.6 462 297.2 461.6C287.6 453.6 276.8 452 265.2 454.8C254.4 457.6 247.6 466 246.8 476.8C246 489.2 251.6 498.4 262.4 502.8C269.2 505.6 276.8 505.6 284 504C289.6 502.8 292 499.6 300 495.2V500.4H311.2C311.2 484.4 311.6 464.8 311.2 446.4C311.2 434.8 304.4 427.6 293.2 425.2ZM298.8 475.6C298.4 476.8 298.8 478 298.8 479.2C298.8 487.6 296.8 490.4 288.8 493.6C283.2 495.6 277.2 496.4 271.2 494.4C264.4 492.4 259.6 486.4 259.6 479.6C259.2 472.8 263.6 466 270.4 464C279.6 460.8 288 462.8 295.6 468.4C298 470.4 299.6 472.4 298.8 475.6V475.6ZM361.2 436C371.6 432.8 381.2 434.8 388.4 443.6L389.6 444.4C392.4 442 394.8 439.6 398 436.8C396.8 435.6 396.4 434.8 395.6 433.6C384 421.2 361.2 419.6 347.2 429.6C327.6 444 328 472 337.6 486.8C346.8 500.8 360 505.6 375.6 503.6C384.8 502.4 392.4 498 398.4 490.4C395.6 488 392.8 485.6 390 482.8C389.2 483.6 388.8 484 388.4 484.8C377.6 496.8 359.6 495.6 350 482.8C344.4 475.2 343.2 466.4 344.8 457.6C345.6 447.6 350.8 439.6 361.2 436ZM444.4 490.4C443.6 490.8 443.2 491.2 443.2 491.2C440 493.6 436.8 494 433.2 492.8C429.6 491.2 429.2 488 428.8 484.8V439.2C428.8 438.4 428.8 440 429.2 436H444.4V424H428.4V404H416.4V425.6H406C405.2 425.6 404 426.4 404 427.2C403.6 430 404 432 404 436H416.8V487.2C416.8 493.6 418.4 499.2 424 502.4C430 506 441.6 505.2 446.8 500.8C447.6 500.4 448 498.8 448 498.4C446.8 496 445.6 493.2 444.4 490.4V490.4Z" fill="#61DAFB"/>
</svg>
